<svg width="80" height="80" viewBox="0 0 80 80" fill="none" xmlns="http://www.w3.org/2000/svg">
<g clip-path="url(#clip0_225_13460)">
<path d="M41.9977 29.3289C40.4735 29.3289 38.9605 29.5898 37.5243 30.1004L14.1028 38.4279L41.9977 49.0303L42.3848 48.7292V29.3371C42.2557 29.3334 42.1268 29.3289 41.9977 29.3289Z" fill="#05858D"/>
<path d="M27.2952 33.7374L14.1028 38.4279L27.146 43.3854C24.2106 40.8894 24.2763 36.1454 27.2952 33.7374Z" fill="#05858D"/>
<path d="M46.4709 30.1004C45.0348 29.5898 43.5218 29.3289 41.9976 29.3289V48.8741L69.8925 38.4279L46.4709 30.1004Z" fill="#12CDD9"/>
<path d="M41.9977 48.4053L37.2807 53.98C36.8898 54.5198 36.1892 54.7367 35.5615 54.5122L14.1028 46.8369V67.5041C14.1028 68.7293 14.8726 69.8223 16.0263 70.235L38.2181 78.1725C39.4309 78.6062 40.7096 78.8281 41.9976 78.8281C42.1266 78.8281 42.2557 78.8242 42.3846 78.8198V48.8755L41.9977 48.4053Z" fill="#12CDD9"/>
<path d="M19.6873 69.1003V48.8342L14.1028 46.8367V67.504C14.1028 68.7292 14.8726 69.8221 16.0263 70.2348L21.0489 72.0312C20.2032 71.3155 19.6873 70.2529 19.6873 69.1003Z" fill="#05858D"/>
<path d="M48.4338 54.6684C47.8061 54.8929 47.1056 54.6761 46.7145 54.1362L41.9976 48.4055V78.8281C43.2857 78.8281 44.5642 78.6064 45.7772 78.1725L67.969 70.235C69.1226 69.8223 69.8925 68.7293 69.8925 67.5041V46.9931L48.4338 54.6684Z" fill="#12CDD9"/>
<path d="M55.1532 4.65509C53.8565 3.9918 52.7972 2.93068 52.1369 1.63222C51.9934 1.35018 51.7055 1.17096 51.3891 1.17096C51.0725 1.17096 50.7847 1.35018 50.6412 1.63222C49.9809 2.93068 48.9217 3.99164 47.6249 4.65509C47.3438 4.79884 47.1655 5.08619 47.1655 5.40198V5.42261C47.1655 5.73496 47.3383 6.02324 47.6166 6.16528C48.9092 6.82451 49.9657 7.87859 50.6281 9.16924C50.7703 9.44643 51.0581 9.61831 51.3697 9.61831H51.4087C51.7203 9.61831 52.0081 9.44643 52.1503 9.16924C52.8127 7.87859 53.8693 6.82451 55.1618 6.16528C55.4401 6.0234 55.6129 5.73511 55.6129 5.42261V5.40198C55.6126 5.08635 55.4343 4.799 55.1532 4.65509Z" fill="#FFE02F"/>
<path d="M36.2417 8.11949C35.2713 7.62308 34.4786 6.82902 33.9844 5.8573C33.877 5.64621 33.6616 5.51215 33.4247 5.51215C33.1878 5.51215 32.9724 5.64621 32.865 5.8573C32.3708 6.82902 31.5781 7.62308 30.6077 8.11949C30.3974 8.22715 30.2639 8.44215 30.2639 8.6784V8.69386C30.2639 8.92761 30.3933 9.1434 30.6016 9.24965C31.5689 9.74293 32.3597 10.5318 32.8553 11.4978C32.9617 11.7053 33.1772 11.8339 33.4103 11.8339H33.4395C33.6727 11.8339 33.8881 11.7053 33.9945 11.4978C34.4902 10.5318 35.2809 9.74293 36.2483 9.24965C36.4566 9.1434 36.5859 8.92761 36.5859 8.69386V8.6784C36.5855 8.44215 36.452 8.22715 36.2417 8.11949Z" fill="#FFEA7E"/>
<path d="M50.7806 6.16528C50.5023 6.0234 50.3295 5.73511 50.3295 5.42261V5.40198C50.3295 5.08619 50.5078 4.79884 50.7889 4.65509C51.6317 4.22399 52.3733 3.62398 52.9711 2.90084C52.6491 2.5113 52.3681 2.08676 52.1369 1.63222C51.9934 1.35018 51.7055 1.17096 51.3891 1.17096C51.0726 1.17096 50.7847 1.35018 50.6412 1.63222C49.9809 2.93068 48.9217 3.99164 47.6249 4.65509C47.3438 4.79884 47.1655 5.08619 47.1655 5.40198V5.42261C47.1655 5.73496 47.3383 6.02324 47.6166 6.16528C48.9092 6.82451 49.9657 7.87859 50.6281 9.16924C50.7703 9.44643 51.0581 9.61831 51.3697 9.61831H51.4087C51.7203 9.61831 52.0081 9.44643 52.1503 9.16924C52.3789 8.72392 52.6553 8.30751 52.9713 7.925C52.3714 7.19905 51.627 6.597 50.7806 6.16528Z" fill="#FBC700"/>
<path d="M33.3356 9.24965C33.1274 9.1434 32.9981 8.92761 32.9981 8.69386V8.6784C32.9981 8.44215 33.1316 8.22699 33.3419 8.11949C33.8902 7.83902 34.3788 7.4609 34.7919 7.01215C34.4738 6.66652 34.1994 6.28011 33.9844 5.8573C33.8771 5.64621 33.6616 5.51215 33.4247 5.51215C33.1878 5.51215 32.9724 5.64621 32.865 5.8573C32.3708 6.82902 31.5781 7.62308 30.6077 8.11949C30.3974 8.22715 30.2639 8.44215 30.2639 8.6784V8.69386C30.2639 8.92761 30.3933 9.1434 30.6014 9.24965C31.5688 9.74293 32.3595 10.5318 32.8552 11.4978C32.9616 11.7053 33.177 11.8339 33.4102 11.8339H33.4394C33.6725 11.8339 33.888 11.7053 33.9944 11.4978C34.2078 11.082 34.4788 10.7015 34.7921 10.3607C34.3772 9.90996 33.8864 9.53058 33.3356 9.24965Z" fill="#FFE02F"/>
<path d="M74.0972 44.2329L69.8925 38.4279L41.9976 48.4053L46.7145 54.9173C47.1056 55.4572 47.8061 55.6741 48.4338 55.4495L73.3879 46.524C74.329 46.1876 74.6835 45.0421 74.0972 44.2329Z" fill="#12CDD9"/>
<path d="M9.89809 44.2329L14.1029 38.4279L41.9978 48.4053L37.2808 54.9173C36.8897 55.4572 36.1892 55.6741 35.5616 55.4495L10.6073 46.524C9.66637 46.1876 9.31183 45.0421 9.89809 44.2329Z" fill="#12CDD9"/>
<path d="M14.4125 45.892L18.6428 40.0519L14.1027 38.4279L9.89806 44.2329C9.3118 45.0421 9.66649 46.1876 10.6073 46.5242L14.5102 47.9202C14.0306 47.3741 13.9464 46.5356 14.4125 45.892Z" fill="#05858D"/>
<path d="M13.2612 37.7406L9.05658 43.5454C8.01171 44.9878 8.64204 47.0273 10.3203 47.6275L13.0385 48.5997V67.504C13.0385 69.2196 14.1239 70.7606 15.7394 71.3383L37.931 79.2758C40.5847 80.2252 43.5348 80.2575 46.2793 79.2758L68.4712 71.3383C70.0867 70.7606 71.172 69.2196 71.172 67.504V61.5224C71.172 60.8751 70.6475 60.3506 70.0001 60.3506C69.3528 60.3506 68.8282 60.8751 68.8282 61.5224V67.504C68.8282 68.2321 68.3676 68.8862 67.6819 69.1315L45.4899 77.069C44.7709 77.3262 44.0302 77.4998 43.2771 77.5879V52.0209L45.8731 55.6047C46.5604 56.5542 47.822 56.9519 48.9363 56.553C50.1782 56.1088 68.2787 49.6347 68.8284 49.438V56.0534C68.8284 56.7008 69.3529 57.2253 70.0003 57.2253C70.6476 57.2253 71.1722 56.7008 71.1722 56.0534V48.5997L73.8903 47.6275C75.5674 47.0276 76.1996 44.9884 75.1538 43.5452L75.154 43.5454L70.9493 37.7406C70.8295 37.5748 70.6193 37.4043 70.3928 37.3239L60.2346 33.7122C59.6246 33.4949 58.9546 33.8138 58.7379 34.4238C58.521 35.0337 58.8396 35.7037 59.4494 35.9205L66.5111 38.4314L43.2769 46.7415V30.5569C44.2679 30.6523 45.2423 30.869 46.1859 31.2047L54.2675 34.0782C54.8773 34.2954 55.5475 33.9766 55.7642 33.3666C55.9811 32.7567 55.6625 32.0867 55.0526 31.8698L46.9711 28.9964C43.9024 27.9051 40.4667 27.8485 37.239 28.9964L13.8176 37.3239C13.5942 37.4034 13.3868 37.5671 13.2612 37.7406ZM10.9546 44.9204L14.6434 39.8275L40.2397 48.9827C39.3711 50.1818 40.1284 49.1364 36.439 54.23C36.3541 54.347 36.1993 54.3945 36.0637 54.3462C35.6277 54.1903 11.5654 45.5837 11.1096 45.4207C10.9038 45.347 10.8263 45.0974 10.9546 44.9204ZM16.5284 69.1315C15.8428 68.8863 15.3822 68.2321 15.3822 67.504V49.438L35.2744 56.553C36.399 56.9553 37.6514 56.5444 38.3321 55.6116C38.3339 55.6092 38.3357 55.6072 38.3375 55.6048C38.3375 55.6047 38.3375 55.6047 38.3375 55.6047L40.9333 52.0209V77.5878C40.1802 77.4996 39.4394 77.326 38.7203 77.069L16.5284 69.1315ZM73.2558 44.9204C73.3839 45.0973 73.3064 45.347 73.101 45.4207C72.8664 45.5046 48.3933 54.2579 48.1469 54.3461C48.0112 54.3948 47.8562 54.3472 47.7714 54.23L43.9705 48.9827L69.567 39.8275L73.2558 44.9204ZM38.0243 31.2047C38.9679 30.8692 39.9422 30.6525 40.9331 30.5569V46.7415C39.9281 46.382 18.6044 38.7551 17.6991 38.4312L38.0243 31.2047Z" fill="#252836"/>
<path d="M43.2769 24.4213V9.7752C43.2769 9.12784 42.7524 8.6033 42.105 8.6033C41.4576 8.6033 40.9331 9.12784 40.9331 9.7752V24.4211C40.9331 25.0685 41.4576 25.593 42.105 25.593C42.7524 25.593 43.2769 25.0685 43.2769 24.4213Z" fill="#FF8700"/>
<path d="M57.6224 12.0156C57.2878 12.162 49.4107 15.7119 48.1084 25.4763C48.0149 26.1774 48.5596 26.8032 49.2715 26.8032C49.8498 26.8032 50.3531 26.3751 50.4317 25.786C50.9015 22.2626 52.4016 19.2424 54.89 16.8092C56.7601 14.9806 58.5243 14.1797 58.5639 14.162C59.1551 13.9018 59.4247 13.212 59.1658 12.6198C58.9065 12.0268 58.2161 11.7565 57.6224 12.0156Z" fill="#FF8700"/>
<path d="M55.241 27.9796C54.9194 28.5413 55.1141 29.2573 55.6759 29.5787C56.2368 29.9 56.9532 29.7061 57.275 29.1439C59.9969 24.3888 64.0401 22.5325 66.9528 21.8128C67.5811 21.6575 67.9645 21.0221 67.8092 20.3938C67.6539 19.7656 67.0184 19.3818 66.3903 19.5374C63.6423 20.2168 58.5398 22.2165 55.241 27.9796Z" fill="#FF8700"/>
<path d="M25.0445 12.6198C24.7852 13.2128 25.0557 13.9037 25.6487 14.1631C25.7185 14.1936 32.649 17.3163 33.7785 25.7861C33.8643 26.4297 34.4559 26.8783 35.0951 26.7929C35.7367 26.7072 36.1873 26.1179 36.1019 25.4763C34.7995 15.7119 26.9223 12.1618 26.5876 12.0156C25.9946 11.7565 25.304 12.027 25.0445 12.6198Z" fill="#FF8700"/>
<path d="M16.4009 20.3938C16.2458 21.0221 16.6292 21.6575 17.2573 21.8128C20.17 22.5326 24.2134 24.3889 26.9352 29.1439C27.2569 29.7061 27.9733 29.9001 28.5343 29.5787C29.096 29.2571 29.2907 28.5412 28.9691 27.9796C25.6705 22.2165 20.5677 20.2167 17.8198 19.5374C17.1911 19.3819 16.5562 19.7659 16.4009 20.3938Z" fill="#FF8700"/>
<path d="M63.5547 11.9174C62.9073 11.9174 62.3828 12.4419 62.3828 13.0893C62.3828 13.7366 62.9073 14.2611 63.5547 14.2611H64.3708V15.0772C64.3708 15.7246 64.8953 16.2491 65.5427 16.2491C66.19 16.2491 66.7145 15.7246 66.7145 15.0772V14.2611H67.5306C68.178 14.2611 68.7025 13.7366 68.7025 13.0893C68.7025 12.4419 68.178 11.9174 67.5306 11.9174H66.7145V11.1014C66.7145 10.4541 66.19 9.92957 65.5427 9.92957C64.8953 9.92957 64.3708 10.4541 64.3708 11.1014V11.9174H63.5547Z" fill="#FF8700"/>
<path d="M16.3666 28.1569H15.5505C14.9032 28.1569 14.3787 28.6815 14.3787 29.3288C14.3787 29.9761 14.9032 30.5007 15.5505 30.5007H16.3666V31.3168C16.3666 31.9641 16.8912 32.4886 17.5385 32.4886C18.1858 32.4886 18.7104 31.9641 18.7104 31.3168V30.5007H19.5265C20.1738 30.5007 20.6983 29.9761 20.6983 29.3288C20.6983 28.6815 20.1738 28.1569 19.5265 28.1569H18.7104V27.3408C18.7104 26.6935 18.1858 26.169 17.5385 26.169C16.8912 26.169 16.3666 26.6935 16.3666 27.3408V28.1569Z" fill="#FF8700"/>
<path d="M55.7945 3.61195C54.7235 3.06397 53.8336 2.17223 53.2889 1.10096C52.5417 -0.367036 50.4512 -0.36688 49.704 1.10127C49.1595 2.17223 48.2695 3.06413 47.1987 3.61179C45.7315 4.36212 45.7413 6.46966 47.1916 7.20921C48.2579 7.75297 49.1464 8.63908 49.6929 9.70441C50.4367 11.1535 52.5564 11.1538 53.3004 9.70426C53.8469 8.63924 54.7354 7.75312 55.8018 7.20905C57.2515 6.46966 57.262 4.36274 55.7945 3.61195ZM51.4964 8.13157C50.8236 7.02655 49.8825 6.08544 48.7775 5.41245C49.8829 4.73963 50.8237 3.79945 51.4966 2.69521C52.1696 3.79945 53.1102 4.73963 54.2154 5.41245C53.1105 6.08544 52.1694 7.02639 51.4964 8.13157Z" fill="#252836"/>
<path d="M31.9198 12.0331C32.5856 13.33 34.4785 13.332 35.1444 12.0331C35.5254 11.2905 36.1446 10.6729 36.8879 10.2938C38.1768 9.6366 38.2051 7.75313 36.8833 7.0764C36.8832 7.07624 36.883 7.07624 36.8829 7.07608C36.1365 6.69436 35.5163 6.07294 35.1364 5.32605C34.4685 4.01274 32.5962 4.01243 31.9278 5.32621C31.5481 6.07278 30.9279 6.69436 30.1806 7.07655C28.8784 7.7436 28.8685 9.62691 30.1765 10.2938C30.9196 10.6727 31.5389 11.2905 31.9198 12.0331ZM33.532 7.18734C33.9445 7.76532 34.4536 8.27423 35.0321 8.68643C34.4539 9.09878 33.9445 9.60801 33.532 10.1865C33.1197 9.60832 32.6105 9.09878 32.0322 8.68643C32.6106 8.27408 33.1198 7.76532 33.532 7.18734Z" fill="#252836"/>
</g>
<defs>
<clipPath id="clip0_225_13460">
<rect width="80" height="80" fill="white"/>
</clipPath>
</defs>
</svg>
