<svg width="76" height="68" viewBox="0 0 76 68" fill="none" xmlns="http://www.w3.org/2000/svg">
<path d="M76.0001 24.2903V67.2693H18.208C17.24 67.2693 16.457 66.4848 16.457 65.5183V18.3694C16.457 17.4014 17.24 16.6184 18.208 16.6184H39.4421C39.9054 16.6184 40.3504 16.8019 40.6792 17.1307L45.5756 22.027C45.9044 22.3558 46.3494 22.5393 46.8141 22.5393H74.2491C75.2156 22.5394 76.0001 23.3239 76.0001 24.2903Z" fill="#756F6F"/>
<path d="M48.1033 31.0762C50.4606 31.0762 52.3716 29.1652 52.3716 26.8079C52.3716 24.4505 50.4606 22.5396 48.1033 22.5396C45.746 22.5396 43.835 24.4505 43.835 26.8079C43.835 29.1652 45.746 31.0762 48.1033 31.0762Z" fill="#5B5555"/>
<path d="M32.4353 36.8831C33.206 37.6523 32.6617 38.9704 31.5714 38.9704H18.0933C17.5412 38.9704 16.9953 38.9428 16.457 38.8909V18.3694C16.457 17.4014 17.24 16.6184 18.208 16.6184H33.4248C34.1343 18.4549 34.5243 20.4521 34.5243 22.5394C34.5243 27.0766 32.6847 31.1838 29.7119 34.1581L32.4353 36.8831Z" fill="#5B5555"/>
<path d="M75.9995 24.2903V67.2693H70.1855V24.2903C70.1855 23.3238 69.4025 22.5393 68.4346 22.5393H74.2484C75.215 22.5395 75.9995 23.3239 75.9995 24.2903Z" fill="#5B5555"/>
<path d="M58.1429 45.3134L76.0001 67.2697H17.289C16.7621 67.2697 16.2633 67.0323 15.9308 66.6235L0.395817 47.5226C-0.534589 46.3786 0.279442 44.6672 1.75402 44.6672H56.7845C57.3116 44.6672 57.8105 44.9046 58.1429 45.3134Z" fill="#12CDD9"/>
<path d="M76.0005 67.2692H68.4709L50.6147 45.3134C50.2814 44.905 49.7829 44.6665 49.2568 44.6665H56.785C57.3125 44.6665 57.811 44.905 58.1429 45.3134L76.0005 67.2692Z" fill="#12CDD9"/>
<path d="M62.7036 62.1195H47.2561C46.7786 62.1195 46.3286 61.8964 46.0393 61.5164L42.0804 56.3147C41.6973 55.8114 42.0564 55.0872 42.6889 55.0872H58.1363C58.6138 55.0872 59.0639 55.3103 59.3532 55.6903L63.312 60.892C63.6951 61.3952 63.3362 62.1195 62.7036 62.1195Z" fill="#F8F3F1"/>
<path d="M62.7039 62.1192H57.7341C58.3671 62.1192 58.7265 61.3958 58.3427 60.8913L54.3837 55.6907C54.0947 55.3099 53.645 55.0867 53.168 55.0867H58.1363C58.6149 55.0867 59.0645 55.3099 59.3535 55.6907L63.3125 60.8913C63.6947 61.396 63.337 62.1192 62.7039 62.1192Z" fill="#EFE2DD"/>
<path d="M37.9997 63.2661H30.9828C30.3494 63.2661 29.8359 62.7526 29.8359 62.1192C29.8359 61.4859 30.3494 60.9724 30.9828 60.9724H37.9997C38.6331 60.9724 39.1465 61.4859 39.1465 62.1192C39.1465 62.7526 38.6331 63.2661 37.9997 63.2661Z" fill="#F8F3F1"/>
<path d="M35.4397 59.4621H32.4613C31.8279 59.4621 31.3145 58.9487 31.3145 58.3153C31.3145 57.6819 31.8279 57.1685 32.4613 57.1685H35.4397C36.0731 57.1685 36.5865 57.6819 36.5865 58.3153C36.5867 58.9487 36.0732 59.4621 35.4397 59.4621Z" fill="#F8F3F1"/>
<path d="M34.5241 17.1615C34.5241 8.08688 27.1677 0.730469 18.0932 0.730469C9.02713 0.730469 1.66211 8.09549 1.66211 17.1616C1.66226 26.2362 9.01852 33.5925 18.0931 33.5925H31.5712C32.6609 33.5925 33.2067 32.2749 32.4362 31.5044L29.7116 28.7798C32.6851 25.8066 34.5241 21.6988 34.5241 17.1615Z" fill="#12CDD9"/>
<path d="M32.4358 31.5049C33.2065 32.2756 32.6622 33.5922 31.5719 33.5922H26.0301C27.1189 33.5922 27.6649 32.2756 26.894 31.5049L25.2045 29.8145C24.6425 29.2522 24.6069 28.3547 25.1193 27.7469C27.5296 24.888 28.9828 21.1937 28.9828 17.1612C28.9828 9.03217 23.0787 2.28078 15.3242 0.964144C16.0746 0.835448 16.842 0.758854 17.6229 0.736737C26.8119 0.477862 34.3693 7.68985 34.5222 16.8812C34.5996 21.529 32.7459 25.7459 29.7123 28.7797L32.4358 31.5049Z" fill="#05858D"/>
<path d="M21.3369 17.1615L24.3934 14.105C25.2892 13.2092 25.2892 11.7569 24.3934 10.8612C23.4977 9.9654 22.0452 9.9654 21.1496 10.8612L18.0931 13.9177L15.0368 10.8611C14.1411 9.96525 12.6886 9.96525 11.793 10.8611C10.8971 11.7567 10.8971 13.2091 11.793 14.1049L14.8494 17.1614L11.793 20.2178C10.8971 21.1137 10.8971 22.566 11.793 23.4616C12.2408 23.9096 12.8279 24.1335 13.4149 24.1335C14.002 24.1335 14.5889 23.9095 15.0369 23.4616L18.0934 20.4052L21.1499 23.4616C21.5979 23.9096 22.1846 24.1335 22.7718 24.1335C23.3588 24.1335 23.9458 23.9095 24.3938 23.4616C25.2896 22.566 25.2896 21.1137 24.3938 20.2178L21.3369 17.1615Z" fill="#F8F3F1"/>
<path d="M48.1033 27.4629C50.4606 27.4629 52.3716 25.5519 52.3716 23.1946C52.3716 20.8373 50.4606 18.9263 48.1033 18.9263C45.746 18.9263 43.835 20.8373 43.835 23.1946C43.835 25.5519 45.746 27.4629 48.1033 27.4629Z" fill="#FFB300"/>
<path d="M52.3715 23.1942C52.3715 25.5525 50.4599 27.464 48.1036 27.464C47.3136 27.464 46.5725 27.2494 45.9385 26.873C47.614 26.4867 48.8624 24.9868 48.8624 23.1942C48.8624 21.4036 47.616 19.9017 45.9404 19.5155C46.5744 19.141 47.3136 18.9265 48.1036 18.9265C50.46 18.9264 52.3715 20.8379 52.3715 23.1942Z" fill="#FF8700"/>
<path d="M63.0519 18.0768C64.9122 18.0768 66.4203 16.5687 66.4203 14.7084C66.4203 12.8481 64.9122 11.3401 63.0519 11.3401C61.1917 11.3401 59.6836 12.8481 59.6836 14.7084C59.6836 16.5687 61.1917 18.0768 63.0519 18.0768Z" fill="#FFB300"/>
<path d="M66.4203 14.7081C66.4203 16.5691 64.9119 18.0775 63.0524 18.0775C62.429 18.0775 61.8441 17.9082 61.3438 17.6111C62.666 17.3064 63.6511 16.1226 63.6511 14.7081C63.6511 13.295 62.6675 12.1099 61.3452 11.805C61.8455 11.5095 62.4288 11.3401 63.0523 11.3401C64.9119 11.3401 66.4203 12.8487 66.4203 14.7081Z" fill="#FF8700"/>
<path d="M55.3557 8.55182L55.9762 7.93135C56.4242 7.48337 56.4242 6.75736 55.9762 6.30938C55.5283 5.86154 54.8022 5.86154 54.3542 6.30938L53.7337 6.92985L53.1132 6.30938C52.6654 5.86139 51.9392 5.86139 51.4913 6.30938C51.0433 6.75721 51.0433 7.48337 51.4913 7.93135L52.1117 8.55182L51.4913 9.17229C51.0433 9.62027 51.0433 10.3463 51.4913 10.7943C51.7153 11.0183 52.0087 11.1302 52.3022 11.1302C52.5956 11.1302 52.8893 11.0181 53.1131 10.7943L53.7336 10.1738L54.354 10.7943C54.578 11.0183 54.8715 11.1302 55.165 11.1302C55.4584 11.1302 55.752 11.0181 55.9759 10.7943C56.4239 10.3464 56.4239 9.62027 55.9759 9.17229L55.3557 8.55182Z" fill="#12CDD9"/>
<path d="M8.58728 34.5886C8.13944 34.1407 7.41329 34.1407 6.9653 34.5886L5.88497 35.6689L4.80465 34.5886C4.35681 34.1407 3.63065 34.1407 3.18267 34.5886C2.73468 35.0364 2.73468 35.7626 3.18267 36.2105L4.263 37.2909L3.18267 38.3712C2.73468 38.819 2.73468 39.5452 3.18267 39.9932C3.40666 40.2172 3.70012 40.3291 3.99358 40.3291C4.28704 40.3291 4.58065 40.217 4.8045 39.9932L5.88483 38.9128L6.96515 39.9932C7.18915 40.2172 7.48261 40.3291 7.77607 40.3291C8.06953 40.3291 8.36314 40.217 8.58698 39.9932C9.03497 39.5453 9.03497 38.8192 8.58698 38.3712L7.50665 37.2909L8.58698 36.2105C9.03511 35.7626 9.03511 35.0364 8.58728 34.5886Z" fill="#A8E7EF"/>
</svg>
