<svg width="125" height="125" viewBox="0 0 125 125" fill="none" xmlns="http://www.w3.org/2000/svg">
<path d="M112.773 28.1982C114.121 28.1982 115.215 29.292 115.215 30.6396C115.215 31.9873 114.121 33.0811 112.773 33.0811C111.426 33.0811 110.332 31.9873 110.332 30.6396C110.332 29.292 111.426 28.1982 112.773 28.1982Z" fill="#94D4FF"/>
<path d="M112.773 91.6748C114.121 91.6748 115.215 92.7686 115.215 94.1162C115.215 95.4639 114.121 96.5576 112.773 96.5576C111.426 96.5576 110.332 95.4639 110.332 94.1162C110.332 92.7686 111.426 91.6748 112.773 91.6748Z" fill="#94D4FF"/>
<path d="M100.566 106.323C103.264 106.323 105.449 108.508 105.449 111.206C105.449 113.904 103.264 116.089 100.566 116.089C97.8687 116.089 95.6836 113.904 95.6836 111.206C95.6836 108.508 97.8687 106.323 100.566 106.323Z" fill="#12CDD9"/>
<path d="M95.6836 6.22559C97.0312 6.22559 98.125 7.31934 98.125 8.66699C98.125 10.0146 97.0312 11.1084 95.6836 11.1084C94.3359 11.1084 93.2422 10.0146 93.2422 8.66699C93.2422 7.31934 94.3359 6.22559 95.6836 6.22559Z" fill="#94D4FF"/>
<path d="M61.5039 13.5498C34.5361 13.5498 12.6758 35.4102 12.6758 62.3779C12.6758 89.3457 34.5361 111.206 61.5039 111.206C88.4717 111.206 110.332 89.3457 110.332 62.3779C110.332 35.4102 88.4717 13.5498 61.5039 13.5498Z" fill="#FF8700"/>
<path d="M61.5039 98.999C41.2793 98.999 24.8828 82.6025 24.8828 62.3779C24.8828 42.1533 41.2793 25.7568 61.5039 25.7568C81.7285 25.7568 98.125 42.1533 98.125 62.3779C98.125 82.6025 81.7285 98.999 61.5039 98.999Z" fill="white"/>
<path d="M79.6555 50.835C81.5625 52.7417 81.5625 55.8325 79.6555 57.7393L62.3923 75.0049L55.488 81.9092L48.5813 75.0049L43.4031 69.8242C42.4512 68.8721 41.9727 67.6221 41.9727 66.3721C41.9727 65.1221 42.4512 63.8721 43.4031 62.9197C45.3101 61.0129 48.4009 61.0129 50.3074 62.9197L55.488 68.0979L72.7515 50.835C73.7061 49.8828 74.9536 49.4043 76.2036 49.4043C77.4536 49.4043 78.7012 49.8828 79.6555 50.835Z" fill="#22B07D"/>
<path d="M24.8828 111.206C26.2305 111.206 27.3242 112.3 27.3242 113.647C27.3242 114.995 26.2305 116.089 24.8828 116.089C23.5349 116.089 22.4414 114.995 22.4414 113.647C22.4414 112.3 23.5349 111.206 24.8828 111.206Z" fill="#94D4FF"/>
<path d="M18.7793 11.1084C22.1509 11.1084 24.8828 13.8403 24.8828 17.2119C24.8828 20.5835 22.1509 23.3154 18.7793 23.3154C15.4075 23.3154 12.6758 20.5835 12.6758 17.2119C12.6758 13.8403 15.4075 11.1084 18.7793 11.1084Z" fill="#12CDD9"/>
<path d="M10.2344 30.6396C11.582 30.6396 12.6758 31.7334 12.6758 33.0811C12.6758 34.4287 11.582 35.5225 10.2344 35.5225C8.88647 35.5225 7.79297 34.4287 7.79297 33.0811C7.79297 31.7334 8.88647 30.6396 10.2344 30.6396Z" fill="#94D4FF"/>
<path d="M10.2344 91.6748C11.582 91.6748 12.6758 92.7686 12.6758 94.1162C12.6758 95.4639 11.582 96.5576 10.2344 96.5576C8.88647 96.5576 7.79297 95.4639 7.79297 94.1162C7.79297 92.7686 8.88647 91.6748 10.2344 91.6748Z" fill="#94D4FF"/>
<path d="M90.8008 62.3779C90.8008 61.0295 89.7075 59.9365 88.3594 59.9365C87.0112 59.9365 85.918 61.0295 85.918 62.3779C85.918 75.8401 74.9661 86.792 61.5039 86.792C60.1555 86.792 59.0625 87.8853 59.0625 89.2334V98.916C59.8696 98.9692 60.6833 98.999 61.5039 98.999C62.3245 98.999 63.1379 98.9692 63.9453 98.916V91.574C78.9614 90.3291 90.8008 77.71 90.8008 62.3779Z" fill="#12CDD9" fill-opacity="0.3"/>
<path d="M32.207 62.3779C32.207 63.7261 33.3 64.8193 34.6484 64.8193C35.9966 64.8193 37.0898 63.7261 37.0898 62.3779C37.0898 48.916 48.0417 37.9639 61.5039 37.9639C62.8521 37.9639 63.9453 36.8708 63.9453 35.5225V25.8398C63.1379 25.7866 62.3245 25.7568 61.5039 25.7568C60.6833 25.7568 59.8696 25.7866 59.0625 25.8398V33.1819C44.0464 34.4268 32.207 47.0459 32.207 62.3779Z" fill="#12CDD9" fill-opacity="0.3"/>
</svg>
