<svg width="80" height="80" viewBox="0 0 80 80" fill="none" xmlns="http://www.w3.org/2000/svg">
<path d="M72.1765 18.0469C73.039 18.0469 73.739 18.7469 73.739 19.6094C73.739 20.4719 73.039 21.1719 72.1765 21.1719C71.314 21.1719 70.614 20.4719 70.614 19.6094C70.614 18.7469 71.314 18.0469 72.1765 18.0469Z" fill="#94D4FF"/>
<path d="M72.1765 58.6719C73.039 58.6719 73.739 59.3719 73.739 60.2344C73.739 61.0969 73.039 61.7969 72.1765 61.7969C71.314 61.7969 70.614 61.0969 70.614 60.2344C70.614 59.3719 71.314 58.6719 72.1765 58.6719Z" fill="#94D4FF"/>
<path d="M64.364 68.0469C66.0906 68.0469 67.489 69.4453 67.489 71.1719C67.489 72.8984 66.0906 74.2969 64.364 74.2969C62.6375 74.2969 61.239 72.8984 61.239 71.1719C61.239 69.4453 62.6375 68.0469 64.364 68.0469Z" fill="#12CDD9"/>
<path d="M61.239 3.98438C62.1015 3.98438 62.8015 4.68437 62.8015 5.54688C62.8015 6.40937 62.1015 7.10938 61.239 7.10938C60.3765 7.10938 59.6765 6.40937 59.6765 5.54688C59.6765 4.68437 60.3765 3.98438 61.239 3.98438Z" fill="#94D4FF"/>
<path d="M39.364 8.67188C22.1046 8.67188 8.11401 22.6625 8.11401 39.9219C8.11401 57.1813 22.1046 71.1719 39.364 71.1719C56.6234 71.1719 70.614 57.1813 70.614 39.9219C70.614 22.6625 56.6234 8.67188 39.364 8.67188Z" fill="#FF8700"/>
<path d="M39.364 63.3594C26.4203 63.3594 15.9265 52.8656 15.9265 39.9219C15.9265 26.9781 26.4203 16.4844 39.364 16.4844C52.3078 16.4844 62.8015 26.9781 62.8015 39.9219C62.8015 52.8656 52.3078 63.3594 39.364 63.3594Z" fill="white"/>
<path d="M50.9811 32.5344C52.2015 33.7547 52.2015 35.7328 50.9811 36.9531L39.9326 48.0031L35.5139 52.4219L31.0935 48.0031L27.7795 44.6875C27.1703 44.0781 26.864 43.2781 26.864 42.4781C26.864 41.6781 27.1703 40.8781 27.7795 40.2686C29 39.0483 30.9781 39.0483 32.1982 40.2686L35.5139 43.5826L46.5625 32.5344C47.1734 31.925 47.9718 31.6187 48.7718 31.6187C49.5718 31.6187 50.3703 31.925 50.9811 32.5344Z" fill="#22B07D"/>
<path d="M15.9265 71.1719C16.789 71.1719 17.489 71.8719 17.489 72.7344C17.489 73.5969 16.789 74.2969 15.9265 74.2969C15.0639 74.2969 14.364 73.5969 14.364 72.7344C14.364 71.8719 15.0639 71.1719 15.9265 71.1719Z" fill="#94D4FF"/>
<path d="M12.0203 7.10938C14.1781 7.10938 15.9265 8.85781 15.9265 11.0156C15.9265 13.1734 14.1781 14.9219 12.0203 14.9219C9.86229 14.9219 8.11401 13.1734 8.11401 11.0156C8.11401 8.85781 9.86229 7.10938 12.0203 7.10938Z" fill="#12CDD9"/>
<path d="M6.55151 19.6094C7.41401 19.6094 8.11401 20.3094 8.11401 21.1719C8.11401 22.0344 7.41401 22.7344 6.55151 22.7344C5.68886 22.7344 4.98901 22.0344 4.98901 21.1719C4.98901 20.3094 5.68886 19.6094 6.55151 19.6094Z" fill="#94D4FF"/>
<path d="M6.55151 58.6719C7.41401 58.6719 8.11401 59.3719 8.11401 60.2344C8.11401 61.0969 7.41401 61.7969 6.55151 61.7969C5.68886 61.7969 4.98901 61.0969 4.98901 60.2344C4.98901 59.3719 5.68886 58.6719 6.55151 58.6719Z" fill="#94D4FF"/>
<path d="M58.114 39.9219C58.114 39.0589 57.4143 38.3594 56.5515 38.3594C55.6887 38.3594 54.989 39.0589 54.989 39.9219C54.989 48.5377 47.9798 55.5469 39.364 55.5469C38.501 55.5469 37.8015 56.2466 37.8015 57.1094V63.3063C38.3181 63.3403 38.8389 63.3594 39.364 63.3594C39.8892 63.3594 40.4098 63.3403 40.9265 63.3063V58.6073C50.5368 57.8106 58.114 49.7344 58.114 39.9219Z" fill="#12CDD9" fill-opacity="0.3"/>
<path d="M20.614 39.9219C20.614 40.7847 21.3135 41.4844 22.1765 41.4844C23.0393 41.4844 23.739 40.7847 23.739 39.9219C23.739 31.3062 30.7482 24.2969 39.364 24.2969C40.2268 24.2969 40.9265 23.5973 40.9265 22.7344V16.5375C40.4098 16.5034 39.8892 16.4844 39.364 16.4844C38.8389 16.4844 38.3181 16.5034 37.8015 16.5375V21.2364C28.1912 22.0331 20.614 30.1094 20.614 39.9219Z" fill="#12CDD9" fill-opacity="0.3"/>
</svg>
