<svg width="90" height="90" viewBox="0 0 90 90" fill="none" xmlns="http://www.w3.org/2000/svg">
<path d="M84 45C84 67.0914 66.0914 85 44 85C21.9086 85 4 67.0914 4 45C4 22.9086 21.9086 5 44 5C66.0914 5 84 22.9086 84 45Z" fill="#6EA644"/>
<path d="M45 21L78 45L45 69L12 45L45 21Z" fill="#FFDB44"/>
<path d="M59 45C59 52.732 52.732 59 45 59C37.268 59 31 52.732 31 45C31 37.268 37.268 31 45 31C52.732 31 59 37.268 59 45Z" fill="#0051B5"/>
<path d="M32.3473 39C31.4834 40.8185 31 42.8528 31 45C45.4 42.6 53.7501 49.6667 56.1252 53.5C57.5455 51.6439 58.5118 49.4219 58.8582 47C50.8582 39 37.8509 38.3333 32.3473 39Z" fill="white"/>
</svg>
