<svg width="160" height="139" viewBox="0 0 160 139" fill="none" xmlns="http://www.w3.org/2000/svg">
<g clip-path="url(#clip0_2415_1343)">
<path d="M115.125 23.75H85.0813L98.1042 10.7271L95.3333 7.91669L79.5 23.75L63.6667 7.91669L60.8563 10.7271L73.9188 23.75H43.875C39.5208 23.75 35.9583 27.2729 35.9583 31.6667V79.1667C35.9583 83.5209 39.5208 87.0834 43.875 87.0834H115.125C119.479 87.0834 123.042 83.5209 123.042 79.1667V31.6667C123.042 27.2729 119.479 23.75 115.125 23.75ZM115.125 79.1667H43.875V31.6667H115.125V79.1667Z" fill="#12CDD9"/>
<path d="M90.6139 39.9432C92.8229 39.9433 94.6139 41.7341 94.6139 43.9432V66.1707C94.6138 68.3796 92.8228 70.1706 90.6139 70.1707H68.3864C66.1773 70.1707 64.3865 68.3797 64.3864 66.1707V43.9432C64.3864 41.734 66.1772 39.9432 68.3864 39.9432H90.6139ZM74.651 50.3904C73.7165 50.3904 72.8701 50.5982 72.1119 51.0125C71.3626 51.4181 70.7715 51.982 70.3395 52.7049C69.9075 53.4278 69.6911 54.2432 69.691 55.1512C69.691 56.0591 69.9028 56.8747 70.3258 57.5975C70.7578 58.3204 71.3489 58.8892 72.0983 59.3035C72.8565 59.7091 73.7028 59.9119 74.6373 59.9119C75.3955 59.9119 76.0876 59.7799 76.7135 59.5154C77.3483 59.251 77.8821 58.8676 78.3141 58.3651L77.2028 57.3065C76.5328 58.0382 75.7086 58.4041 74.7301 58.4041C74.0954 58.4041 73.5265 58.2682 73.024 57.9949C72.5216 57.7128 72.1294 57.3245 71.8473 56.8309C71.5652 56.3372 71.4235 55.7771 71.4235 55.1512C71.4235 54.5253 71.5652 53.9652 71.8473 53.4715C72.1294 52.978 72.5216 52.5943 73.024 52.3211C73.5265 52.039 74.0954 51.8983 74.7301 51.8983C75.7085 51.8983 76.5328 52.2595 77.2028 52.9822L78.3141 51.9373C77.8821 51.4349 77.353 51.0514 76.7272 50.7869C76.1013 50.5225 75.409 50.3905 74.651 50.3904ZM80.0748 50.5233V59.7801H81.7799V53.5115L86.8854 59.7801H88.3004V50.5233H86.5944V56.7908L81.4899 50.5233H80.0748Z" fill="#12CDD9"/>
<rect x="68.7046" y="47.5" width="21.5909" height="16.1932" fill="#12CDD9"/>
<path d="M70.7125 47.2804V62.2072C70.7125 63.3454 72.24 64.037 73.4164 63.4175L87.7086 55.9541C88.7971 55.3921 88.7971 54.0954 87.7086 53.5191L73.4164 46.0701C72.24 45.4505 70.7125 46.1421 70.7125 47.2804Z" fill="#1F1D28"/>
</g>
<path d="M11.704 132.28C10.2107 132.28 8.82 132.037 7.532 131.552C6.26267 131.048 5.152 130.348 4.2 129.452C3.26667 128.537 2.53867 127.464 2.016 126.232C1.49333 125 1.232 123.656 1.232 122.2C1.232 120.744 1.49333 119.4 2.016 118.168C2.53867 116.936 3.276 115.872 4.228 114.976C5.18 114.061 6.29067 113.361 7.56 112.876C8.82933 112.372 10.22 112.12 11.732 112.12C13.3373 112.12 14.8027 112.4 16.128 112.96C17.4533 113.501 18.5733 114.313 19.488 115.396L17.136 117.608C16.4267 116.843 15.6333 116.273 14.756 115.9C13.8787 115.508 12.9267 115.312 11.9 115.312C10.8733 115.312 9.93067 115.48 9.072 115.816C8.232 116.152 7.49467 116.628 6.86 117.244C6.244 117.86 5.75867 118.588 5.404 119.428C5.068 120.268 4.9 121.192 4.9 122.2C4.9 123.208 5.068 124.132 5.404 124.972C5.75867 125.812 6.244 126.54 6.86 127.156C7.49467 127.772 8.232 128.248 9.072 128.584C9.93067 128.92 10.8733 129.088 11.9 129.088C12.9267 129.088 13.8787 128.901 14.756 128.528C15.6333 128.136 16.4267 127.548 17.136 126.764L19.488 129.004C18.5733 130.068 17.4533 130.88 16.128 131.44C14.8027 132 13.328 132.28 11.704 132.28ZM23.0958 132V112.4H26.7358V132H23.0958ZM32.1572 132V112.4H35.1532L47.4452 127.492H45.9612V112.4H49.5732V132H46.5772L34.2852 116.908H35.7692V132H32.1572ZM58.3051 120.548H68.0491V123.544H58.3051V120.548ZM58.5851 128.948H69.6451V132H54.9451V112.4H69.2531V115.452H58.5851V128.948ZM73.8229 132V112.4H76.8189L85.3869 126.708H83.8189L92.2469 112.4H95.2429L95.2709 132H91.8269L91.7989 117.804H92.5269L85.3589 129.76H83.7349L76.4549 117.804H77.2949V132H73.8229ZM97.9131 132L106.733 112.4H110.317L119.165 132H115.357L107.769 114.332H109.225L101.665 132H97.9131ZM101.973 127.464L102.953 124.608H113.537L114.517 127.464H101.973ZM130.66 132.28C129.13 132.28 127.72 132.037 126.432 131.552C125.163 131.048 124.052 130.348 123.1 129.452C122.148 128.537 121.411 127.464 120.888 126.232C120.366 125 120.104 123.656 120.104 122.2C120.104 120.744 120.366 119.4 120.888 118.168C121.411 116.936 122.148 115.872 123.1 114.976C124.071 114.061 125.2 113.361 126.488 112.876C127.776 112.372 129.186 112.12 130.716 112.12C132.378 112.12 133.871 112.391 135.196 112.932C136.54 113.473 137.67 114.267 138.584 115.312L136.288 117.552C135.523 116.787 134.692 116.227 133.796 115.872C132.919 115.499 131.948 115.312 130.884 115.312C129.858 115.312 128.906 115.48 128.028 115.816C127.151 116.152 126.395 116.628 125.76 117.244C125.126 117.86 124.631 118.588 124.276 119.428C123.94 120.268 123.772 121.192 123.772 122.2C123.772 123.189 123.94 124.104 124.276 124.944C124.631 125.784 125.126 126.521 125.76 127.156C126.395 127.772 127.142 128.248 128 128.584C128.859 128.92 129.811 129.088 130.856 129.088C131.827 129.088 132.76 128.939 133.656 128.64C134.571 128.323 135.439 127.8 136.26 127.072L138.332 129.788C137.306 130.609 136.111 131.235 134.748 131.664C133.404 132.075 132.042 132.28 130.66 132.28ZM134.888 129.312V121.976H138.332V129.788L134.888 129.312ZM141.769 132V129.564L154.425 114.108L154.845 115.48H141.965V112.4H158.121V114.836L145.465 130.292L145.017 128.92H158.485V132H141.769Z" fill="#12CDD9"/>
<defs>
<clipPath id="clip0_2415_1343">
<rect width="95" height="95" fill="white" transform="translate(32)"/>
</clipPath>
</defs>
</svg>
