<svg width="90" height="90" viewBox="0 0 90 90" fill="none" xmlns="http://www.w3.org/2000/svg">
<circle cx="44" cy="45" r="40" fill="#F2F0F2"/>
<mask id="mask0_2_248" style="mask-type:alpha" maskUnits="userSpaceOnUse" x="4" y="5" width="80" height="80">
<circle cx="44" cy="45" r="40" fill="#FCFCFC"/>
</mask>
<g mask="url(#mask0_2_248)">
<rect x="17" y="76" width="55" height="10" fill="#D90026"/>
<rect x="17" y="76" width="55" height="10" fill="#D90026"/>
<rect x="5" y="56" width="79" height="10" fill="#D90026"/>
<rect x="5" y="56" width="79" height="10" fill="#D90026"/>
<rect x="5" y="35" width="79" height="10" fill="#D90026"/>
<rect x="5" y="35" width="79" height="10" fill="#D90026"/>
<rect x="5" y="15" width="79" height="10" fill="#D90026"/>
<rect x="5" y="15" width="79" height="10" fill="#D90026"/>
<rect x="4" y="5" width="41" height="40" fill="#0052B5"/>
<path d="M37 38.5L34 40L35 37L33 35H36L37 32L38.5 35H41L39 37L40 40L37 38.5Z" fill="#EFEFEF"/>
<path d="M23 38.5L20 40L21 37L19 35H22L23 32L24.5 35H27L25 37L26 40L23 38.5Z" fill="#EFEFEF"/>
<path d="M9 38.5L6 40L7 37L5 35H8L9 32L10.5 35H13L11 37L12 40L9 38.5Z" fill="#EFEFEF"/>
<path d="M37 27.5L34 29L35 26L33 24H36L37 21L38.5 24H41L39 26L40 29L37 27.5Z" fill="#EFEFEF"/>
<path d="M37 16.5L34 18L35 15L33 13H36L37 10L38.5 13H41L39 15L40 18L37 16.5Z" fill="#EFEFEF"/>
<path d="M37 5.5L34 7L35 4L33 2H36L37 -1L38.5 2H41L39 4L40 7L37 5.5Z" fill="#EFEFEF"/>
<path d="M23 16.5L20 18L21 15L19 13H22L23 10L24.5 13H27L25 15L26 18L23 16.5Z" fill="#EFEFEF"/>
<path d="M23 27.5L20 29L21 26L19 24H22L23 21L24.5 24H27L25 26L26 29L23 27.5Z" fill="#EFEFEF"/>
<path d="M9 27.5L6 29L7 26L5 24H8L9 21L10.5 24H13L11 26L12 29L9 27.5Z" fill="#EFEFEF"/>
</g>
</svg>
