<svg width="95" height="95" viewBox="0 0 95 95" fill="none" xmlns="http://www.w3.org/2000/svg">
<g clip-path="url(#clip0_2415_1324)">
<path d="M83.125 23.75H53.0813L66.1042 10.7271L63.3333 7.91669L47.5 23.75L31.6667 7.91669L28.8563 10.7271L41.9188 23.75H11.875C7.52084 23.75 3.95834 27.2729 3.95834 31.6667V79.1667C3.95834 83.5209 7.52084 87.0834 11.875 87.0834H83.125C87.4792 87.0834 91.0417 83.5209 91.0417 79.1667V31.6667C91.0417 27.2729 87.4792 23.75 83.125 23.75ZM83.125 79.1667H11.875V31.6667H83.125V79.1667Z" fill="#12CDD9"/>
<path d="M58.6139 39.9432C60.8229 39.9433 62.6139 41.7341 62.6139 43.9432V66.1707C62.6138 68.3796 60.8228 70.1706 58.6139 70.1707H36.3864C34.1773 70.1707 32.3865 68.3797 32.3864 66.1707V43.9432C32.3864 41.734 34.1772 39.9432 36.3864 39.9432H58.6139ZM42.651 50.3904C41.7165 50.3904 40.8701 50.5982 40.1119 51.0125C39.3626 51.4181 38.7715 51.982 38.3395 52.7049C37.9075 53.4278 37.6911 54.2432 37.691 55.1512C37.691 56.0591 37.9028 56.8747 38.3258 57.5975C38.7578 58.3204 39.3489 58.8892 40.0983 59.3035C40.8565 59.7091 41.7028 59.9119 42.6373 59.9119C43.3955 59.9119 44.0876 59.7799 44.7135 59.5154C45.3483 59.251 45.8821 58.8676 46.3141 58.3651L45.2028 57.3065C44.5328 58.0382 43.7086 58.4041 42.7301 58.4041C42.0954 58.4041 41.5265 58.2682 41.024 57.9949C40.5216 57.7128 40.1294 57.3245 39.8473 56.8309C39.5652 56.3372 39.4235 55.7771 39.4235 55.1512C39.4235 54.5253 39.5652 53.9652 39.8473 53.4715C40.1294 52.978 40.5216 52.5943 41.024 52.3211C41.5265 52.039 42.0954 51.8983 42.7301 51.8983C43.7085 51.8983 44.5328 52.2595 45.2028 52.9822L46.3141 51.9373C45.8821 51.4349 45.353 51.0514 44.7272 50.7869C44.1013 50.5225 43.409 50.3905 42.651 50.3904ZM48.0748 50.5233V59.7801H49.7799V53.5115L54.8854 59.7801H56.3004V50.5233H54.5944V56.7908L49.4899 50.5233H48.0748Z" fill="#12CDD9"/>
<rect x="36.7046" y="47.5" width="21.5909" height="16.1932" fill="#12CDD9"/>
<path d="M38.7125 47.2804V62.2072C38.7125 63.3454 40.24 64.037 41.4164 63.4175L55.7086 55.9541C56.7971 55.3921 56.7971 54.0954 55.7086 53.5191L41.4164 46.0701C40.24 45.4505 38.7125 46.1421 38.7125 47.2804Z" fill="#1F1D28"/>
</g>
<defs>
<clipPath id="clip0_2415_1324">
<rect width="95" height="95" fill="white"/>
</clipPath>
</defs>
</svg>
