<svg width="25" height="25" viewBox="0 0 25 25" fill="none" xmlns="http://www.w3.org/2000/svg">
<g clip-path="url(#clip0_74_783)">
<path d="M18.6886 13.9513C18.0311 10.642 21.1722 8.7011 21.1722 8.7011C21.1722 8.7011 19.9484 6.93052 17.8916 6.47502C15.8358 6.01852 14.8069 6.58887 13.78 7.01664C12.7521 7.44546 12.2392 7.44546 12.2392 7.44546C10.7559 7.44546 9.67155 5.8749 6.84539 6.58992C4.89837 7.08127 2.84872 9.3289 2.4784 12.0115C2.10807 14.6951 2.90722 18.1193 4.44801 20.7731C5.9888 23.429 7.55836 24.4272 8.67238 24.4559C9.78644 24.4836 10.8985 23.6578 12.2392 23.4567C13.581 23.2577 14.4068 23.943 15.7229 24.3133C17.0339 24.6826 17.4935 24.34 19.0036 23.0556C20.5177 21.7713 21.8882 18.0875 21.8882 18.0875C21.8882 18.0875 19.3462 17.2627 18.6886 13.9513Z" fill="white"/>
<path d="M15.7776 4.33399C17.2342 2.84965 16.7408 0.551758 16.7408 0.551758C16.7408 0.551758 14.6953 0.910811 13.3248 2.3367C11.9553 3.76364 12.182 6.01741 12.182 6.01741C12.182 6.01741 14.3209 5.81738 15.7776 4.33399Z" fill="white"/>
</g>
<defs>
<clipPath id="clip0_74_783">
<rect width="23.9047" height="23.9047" fill="white" transform="translate(0.186523 0.551758)"/>
</clipPath>
</defs>
</svg>
